<svg xmlns="http://www.w3.org/2000/svg" width="512" height="512" viewBox="0 0 512 512"><g fill="#c5a47e" class="nc-icon-wrapper"><path d="M448.14 384.12v21.34c0 23.58-19.1 42.68-42.68 42.68h-298.76c-23.58 0-42.68-19.1-42.68-42.68v-298.76c0-23.58 19.1-42.68 42.68-42.68h298.76c23.58 0 42.68 19.1 42.68 42.68v21.34h-192.06c-23.58 0-42.68 19.1-42.68 42.68v170.72c0 23.58 19.1 42.68 42.68 42.68h192.06z m-192.06-42.68h213.4v-170.72h-213.4v170.72z m85.36-53.35c-17.71 0-32.01-14.3-32.01-32.01s14.3-32.01 32.01-32.01 32.01 14.3 32.01 32.01-14.3 32.01-32.01 32.01z"></path></g></svg>