<svg id="Layer_1" data-name="Layer 1" xmlns="http://www.w3.org/2000/svg" viewBox="0 0 512 512"><defs><style>.cls-1{fill:#f2b705;}.cls-2{fill:#092947;stroke:#e8f5ff;stroke-miterlimit:10;stroke-width:12px;}</style></defs><path class="cls-1" d="M357.82,240.07l-29.34-2.13a74,74,0,0,0-8.38-20.27l19.21-22.23a5.33,5.33,0,0,0-.27-7.26L324,173.09a5.34,5.34,0,0,0-7.25-.27l-22.21,19.24a74.44,74.44,0,0,0-20.27-8.42l-2.13-29.35a5.34,5.34,0,0,0-5.34-4.91H245.41a5.33,5.33,0,0,0-5.34,5l-2.13,29.35a74.59,74.59,0,0,0-20.27,8.38l-22.24-19.21a5.34,5.34,0,0,0-7.25.27l-15.09,15.09a5.33,5.33,0,0,0-.27,7.26l19.24,22.2a73.82,73.82,0,0,0-8.42,20.27l-29.34,2.13a5.33,5.33,0,0,0-4.92,5.34v21.34a5.33,5.33,0,0,0,5,5.34l29.34,2.13a74.15,74.15,0,0,0,8.38,20.27l-19.21,22.24a5.34,5.34,0,0,0,.27,7.25l15.09,15.09a5.34,5.34,0,0,0,7.25.27l22.21-19.24a74.44,74.44,0,0,0,20.27,8.42l2.13,29.34a5.33,5.33,0,0,0,5.34,4.92h21.34a5.33,5.33,0,0,0,5.34-5l2.13-29.34a74.15,74.15,0,0,0,20.27-8.38l22.24,19.21A5.34,5.34,0,0,0,324,339L339.07,324a5.34,5.34,0,0,0,.27-7.25L320.1,294.49a74.44,74.44,0,0,0,8.42-20.27l29.34-2.13a5.33,5.33,0,0,0,4.92-5.34V245.41a5.32,5.32,0,0,0-5-5.33Zm-101.74,48a32,32,0,1,1,32-32,32,32,0,0,1-32,32Z"/><path class="cls-2" d="M480.15,53.35A42.68,42.68,0,1,0,426.8,94.51V145l-39.55,39.56a10.67,10.67,0,1,0,14.54,15.62,6.88,6.88,0,0,0,.54-.54L445,156.92a10.67,10.67,0,0,0,3.13-7.54V94.51A42.68,42.68,0,0,0,480.15,53.35Z"/><path class="cls-2" d="M124.91,184.52,85.36,145V94.51a42.68,42.68,0,1,0-21.34,0v54.87a10.67,10.67,0,0,0,3.13,7.54l42.68,42.68a10.67,10.67,0,0,0,15.08-15.08Z"/><path class="cls-2" d="M288.09,10.67h-64A10.67,10.67,0,0,0,213.4,21.34v64A10.67,10.67,0,0,0,224.07,96h21.34v21.34a10.67,10.67,0,0,0,21.34,0V96h21.34a10.67,10.67,0,0,0,10.67-10.67h0v-64a10.67,10.67,0,0,0-10.67-10.67Z"/><path class="cls-2" d="M469.48,416.13H448.14V362.78a10.67,10.67,0,0,0-3.13-7.54l-42.68-42.68a10.67,10.67,0,0,0-15.08,15.08L426.8,367.2v48.93H405.46a10.67,10.67,0,0,0-10.67,10.67h0v64a10.67,10.67,0,0,0,10.67,10.67h64a10.67,10.67,0,0,0,10.67-10.67h0v-64a10.67,10.67,0,0,0-10.67-10.67Z"/><path class="cls-2" d="M124.91,327.64a10.67,10.67,0,0,0-15.08-15.08L67.15,355.24A10.67,10.67,0,0,0,64,362.78v53.35H42.68A10.67,10.67,0,0,0,32,426.8h0v64a10.67,10.67,0,0,0,10.67,10.67h64a10.67,10.67,0,0,0,10.67-10.67h0v-64a10.67,10.67,0,0,0-10.67-10.67H85.36V367.2Z"/><path class="cls-2" d="M266.75,417.65V394.79a10.67,10.67,0,0,0-21.34,0v22.86a42.68,42.68,0,1,0,21.34,0Z"/></svg>